<?xml version="1.0" encoding="utf-8"?>
<!-- Generated by IcoMoon.io -->
<svg version="1.1" xmlns="http://www.w3.org/2000/svg" xmlns:xlink="http://www.w3.org/1999/xlink" width="752" height="32" viewBox="0 0 752 32">
<svg id="icon-facebook" width="32" height="32" viewBox="0 0 32 32" x="0" y="0">
<path fill="#4d5ae5" style="fill: var(--color1, #4d5ae5)" d="M32 16c0 4.418-1.791 8.418-4.686 11.314s-6.895 4.686-11.314 4.686c-4.418 0-8.418-1.791-11.314-4.686s-4.686-6.895-4.686-11.314c0-4.418 1.791-8.418 4.686-11.314s6.895-4.686 11.314-4.686c4.418 0 8.418 1.791 11.314 4.686s4.686 6.895 4.686 11.314z"></path>
<path fill="#f4f4fd" style="fill: var(--color2, #f4f4fd)" d="M18.132 11.725h1.169v-2.035c-0.202-0.028-0.895-0.090-1.702-0.090-1.685 0-2.839 1.060-2.839 3.008v1.792h-1.859v2.275h1.859v5.725h2.279v-5.724h1.784l0.283-2.275h-2.068v-1.567c0-0.658 0.178-1.108 1.094-1.108z"></path>
</svg>
<svg id="icon-graph" width="75" height="32" viewBox="0 0 75 32" x="48" y="0">
<path fill="#f4f4fd" d="M1.143 0.143h73.143c0.552 0 1 0.448 1 1v29.714c0 0.552-0.448 1-1 1h-73.143c-0.552 0-1-0.448-1-1v-29.714c0-0.552 0.448-1 1-1z"></path>
<path fill="#4d5ae5" d="M37.1 15.408h0.609v2.741h-0.609v-2.741z"></path>
<path fill="#4d5ae5" d="M39.537 16.627h0.609v1.523h-0.609v-1.523z"></path>
<path fill="#4d5ae5" d="M34.663 17.541h0.609v0.609h-0.609v-0.609z"></path>
<path fill="#4d5ae5" d="M32.836 17.236h0.609v0.914h-0.609v-0.914z"></path>
<path fill="#2e2f42" d="M29.485 23.023h14.621c0.505 0 0.914-0.409 0.914-0.914v-1.218c0-0.505-0.409-0.914-0.914-0.914h-0.305v-7.596l1.73-1.639c0.402 0.198 0.888 0.078 1.151-0.285s0.226-0.862-0.087-1.182c-0.313-0.32-0.812-0.368-1.18-0.113s-0.499 0.738-0.31 1.144l-1.304 1.236v-0.703c0-0.505-0.409-0.914-0.914-0.914h-12.184c-0.505 0-0.914 0.409-0.914 0.914v9.138h-0.305c-0.505 0-0.914 0.409-0.914 0.914v1.218c0 0.505 0.409 0.914 0.914 0.914zM45.934 9.621c0.168 0 0.305 0.136 0.305 0.305s-0.136 0.305-0.305 0.305c-0.168 0-0.305-0.136-0.305-0.305s0.136-0.305 0.305-0.305zM30.399 10.839c0-0.168 0.136-0.305 0.305-0.305h12.184c0.168 0 0.305 0.136 0.305 0.305v1.279l-0.609 0.579v-1.249c0-0.168-0.136-0.305-0.305-0.305h-10.966c-0.168 0-0.305 0.136-0.305 0.305v7.615c0 0.168 0.136 0.305 0.305 0.305h10.966c0.168 0 0.305-0.136 0.305-0.305v-5.528l0.609-0.577v7.019h-12.793v-9.138zM33.141 14.799c-0.412-0.001-0.774 0.273-0.884 0.671s0.060 0.819 0.415 1.029c0.354 0.21 0.806 0.157 1.102-0.129l1.059 0.531c0.123 0.062 0.272 0.033 0.364-0.070l2.251-2.532 2.213 1.658c0.119 0.089 0.285 0.079 0.392-0.022l1.923-1.822v4.646h-10.357v-7.006h10.357v1.52l-2.155 2.041-2.231-1.673c-0.127-0.095-0.305-0.077-0.41 0.041l-2.282 2.567-0.853-0.427c0.006-0.037 0.010-0.073 0.012-0.111 0-0.505-0.409-0.914-0.914-0.914zM33.445 15.713c0 0.168-0.137 0.305-0.305 0.305s-0.305-0.136-0.305-0.305 0.136-0.305 0.305-0.305c0.168 0 0.305 0.136 0.305 0.305zM35.273 20.587h3.046v0.305c0 0.168-0.136 0.305-0.305 0.305h-2.437c-0.168 0-0.305-0.136-0.305-0.305v-0.305zM29.181 20.891c0-0.168 0.137-0.305 0.305-0.305h5.178v0.305c0 0.505 0.409 0.914 0.914 0.914h2.437c0.505 0 0.914-0.409 0.914-0.914v-0.305h5.178c0.168 0 0.305 0.136 0.305 0.305v1.218c0 0.168-0.137 0.305-0.305 0.305h-14.621c-0.168 0-0.305-0.136-0.305-0.305v-1.218z"></path>
</svg>
<svg id="icon-instagram" width="32" height="32" viewBox="0 0 32 32" x="144" y="0">
<path fill="#4d5ae5" style="fill: var(--color1, #4d5ae5)" d="M32 16c0 4.418-1.791 8.418-4.686 11.314s-6.895 4.686-11.314 4.686c-4.418 0-8.418-1.791-11.314-4.686s-4.686-6.895-4.686-11.314c0-4.418 1.791-8.418 4.686-11.314s6.895-4.686 11.314-4.686c4.418 0 8.418 1.791 11.314 4.686s4.686 6.895 4.686 11.314z"></path>
<path fill="#f4f4fd" style="fill: var(--color2, #f4f4fd)" d="M22.387 13.363c-0.030-0.68-0.14-1.148-0.298-1.553-0.163-0.43-0.413-0.815-0.74-1.135-0.32-0.325-0.708-0.578-1.133-0.738-0.408-0.158-0.873-0.268-1.553-0.298-0.685-0.033-0.903-0.040-2.641-0.040s-1.955 0.008-2.638 0.038c-0.68 0.030-1.148 0.14-1.553 0.298-0.43 0.163-0.815 0.413-1.135 0.74-0.325 0.32-0.578 0.708-0.738 1.133-0.158 0.408-0.268 0.873-0.298 1.553-0.032 0.685-0.040 0.903-0.040 2.641s0.008 1.955 0.038 2.638c0.030 0.68 0.14 1.148 0.298 1.553 0.162 0.43 0.415 0.815 0.74 1.135 0.32 0.325 0.708 0.578 1.133 0.738 0.408 0.158 0.873 0.268 1.553 0.298 0.683 0.030 0.9 0.038 2.638 0.038s1.955-0.007 2.638-0.038c0.68-0.030 1.148-0.14 1.553-0.298 0.86-0.333 1.54-1.013 1.873-1.873 0.157-0.408 0.268-0.873 0.298-1.553 0.030-0.683 0.038-0.9 0.038-2.638s-0.003-1.955-0.033-2.638zM21.235 18.589c-0.028 0.625-0.133 0.963-0.22 1.188-0.215 0.558-0.658 1-1.215 1.215-0.225 0.088-0.565 0.192-1.188 0.22-0.675 0.030-0.878 0.038-2.585 0.038s-1.913-0.007-2.586-0.038c-0.625-0.027-0.963-0.132-1.188-0.22-0.278-0.103-0.53-0.265-0.735-0.478-0.213-0.208-0.375-0.458-0.478-0.735-0.088-0.225-0.193-0.565-0.22-1.188-0.030-0.675-0.038-0.878-0.038-2.586s0.007-1.913 0.038-2.585c0.027-0.625 0.132-0.963 0.22-1.188 0.103-0.278 0.265-0.53 0.48-0.735 0.207-0.212 0.458-0.375 0.735-0.478 0.225-0.088 0.565-0.192 1.188-0.22 0.675-0.030 0.878-0.038 2.586-0.038 1.71 0 1.913 0.008 2.586 0.038 0.625 0.028 0.963 0.133 1.188 0.22 0.277 0.102 0.53 0.265 0.735 0.478 0.212 0.208 0.375 0.458 0.478 0.735 0.088 0.225 0.192 0.565 0.22 1.188 0.030 0.675 0.038 0.878 0.038 2.585s-0.008 1.908-0.038 2.583z"></path>
<path fill="#f4f4fd" style="fill: var(--color2, #f4f4fd)" d="M16.024 12.713c-1.815 0-3.288 1.473-3.288 3.288s1.473 3.288 3.288 3.288c1.815 0 3.288-1.473 3.288-3.288s-1.473-3.288-3.288-3.288zM16.024 18.134c-1.178 0-2.133-0.955-2.133-2.133s0.955-2.133 2.133-2.133c1.178 0 2.133 0.955 2.133 2.133s-0.955 2.133-2.133 2.133z"></path>
<path fill="#f4f4fd" style="fill: var(--color2, #f4f4fd)" d="M20.21 12.583c0 0.424-0.344 0.768-0.768 0.768s-0.768-0.344-0.768-0.768c0-0.424 0.344-0.768 0.768-0.768s0.768 0.344 0.768 0.768z"></path>
</svg>
<svg id="icon-linkedin" width="32" height="32" viewBox="0 0 32 32" x="192" y="0">
<path fill="#4d5ae5" style="fill: var(--color1, #4d5ae5)" d="M32 16c0 4.418-1.791 8.418-4.686 11.314s-6.895 4.686-11.314 4.686c-4.418 0-8.418-1.791-11.314-4.686s-4.686-6.895-4.686-11.314c0-4.418 1.791-8.418 4.686-11.314s6.895-4.686 11.314-4.686c4.418 0 8.418 1.791 11.314 4.686s4.686 6.895 4.686 11.314z"></path>
<path fill="#f4f4fd" style="fill: var(--color2, #f4f4fd)" d="M22.397 22.4v-0.001h0.003v-4.694c0-2.297-0.494-4.066-3.179-4.066-1.291 0-2.157 0.708-2.51 1.38h-0.037v-1.165h-2.546v8.546h2.651v-4.231c0-1.114 0.211-2.192 1.591-2.192 1.36 0 1.38 1.272 1.38 2.263v4.161h2.648z"></path>
<path fill="#f4f4fd" style="fill: var(--color2, #f4f4fd)" d="M9.811 13.854h2.654v8.546h-2.654v-8.546z"></path>
<path fill="#f4f4fd" style="fill: var(--color2, #f4f4fd)" d="M11.137 9.6c-0.849 0-1.537 0.689-1.537 1.537s0.688 1.551 1.537 1.551 1.537-0.703 1.537-1.551c-0-0.849-0.689-1.537-1.537-1.537v0z"></path>
</svg>
<svg id="icon-twitter" width="32" height="32" viewBox="0 0 32 32" x="240" y="0">
<path fill="#4d5ae5" style="fill: var(--color1, #4d5ae5)" d="M32 16c0 4.418-1.791 8.418-4.686 11.314s-6.895 4.686-11.314 4.686c-4.418 0-8.418-1.791-11.314-4.686s-4.686-6.895-4.686-11.314c0-4.418 1.791-8.418 4.686-11.314s6.895-4.686 11.314-4.686c4.418 0 8.418 1.791 11.314 4.686s4.686 6.895 4.686 11.314z"></path>
<path fill="#f4f4fd" style="fill: var(--color2, #f4f4fd)" d="M22.4 12.031c-0.476 0.209-0.983 0.347-1.512 0.414 0.544-0.325 0.959-0.835 1.154-1.45-0.507 0.302-1.067 0.516-1.664 0.635-0.482-0.513-1.168-0.83-1.917-0.83-1.453 0-2.622 1.179-2.622 2.625 0 0.208 0.018 0.408 0.061 0.598-2.182-0.106-4.112-1.152-5.409-2.745-0.226 0.393-0.359 0.842-0.359 1.326 0 0.909 0.468 1.714 1.166 2.181-0.422-0.008-0.835-0.13-1.186-0.323 0 0.008 0 0.018 0 0.029 0 1.275 0.91 2.334 2.102 2.578-0.214 0.058-0.446 0.086-0.688 0.086-0.168 0-0.338-0.010-0.497-0.045 0.34 1.039 1.305 1.803 2.452 1.828-0.893 0.698-2.026 1.119-3.254 1.119-0.215 0-0.422-0.010-0.628-0.036 1.162 0.75 2.54 1.178 4.026 1.178 4.829 0 7.469-4 7.469-7.467 0-0.116-0.004-0.228-0.010-0.339 0.521-0.37 0.958-0.831 1.315-1.362z"></path>
</svg>
<svg id="icon-antenna" width="75" height="32" viewBox="0 0 75 32" x="288" y="0">
<path fill="#f4f4fd" d="M1.143 0.143h73.143c0.552 0 1 0.448 1 1v29.714c0 0.552-0.448 1-1 1h-73.143c-0.552 0-1-0.448-1-1v-29.714c0-0.552 0.448-1 1-1z"></path>
<path fill="#2e2f42" d="M46.156 19.484l-4.825-4.86 0.535-2.637c0.138 0.054 0.285 0.082 0.433 0.083h0.004c0.681 0.008 1.24-0.538 1.248-1.219s-0.538-1.24-1.219-1.248c-0.681-0.008-1.24 0.538-1.248 1.219-0.002 0.146 0.022 0.291 0.071 0.428l-2.834 0.346-4.623-4.647c-0.057-0.058-0.134-0.091-0.215-0.091-0.080 0-0.157 0.032-0.213 0.089l-0.864 0.859c-0.119 0.119-0.119 0.312 0 0.431l0.465 0.472c-1.802 3.313-1.217 7.416 1.44 10.093 0.024 0.023 0.053 0.042 0.083 0.056-0.019 0.103-0.029 0.208-0.030 0.313v3.535h-3.657c-0.841 0.001-1.523 0.683-1.524 1.524v0.61c0 0.168 0.137 0.305 0.305 0.305h14.019c0.168 0 0.305-0.136 0.305-0.305v-0.61c-0.001-0.841-0.683-1.523-1.524-1.524h-3.657v-1.567c0.573 0.12 1.157 0.181 1.742 0.183 1.405-0.002 2.787-0.352 4.023-1.019l0.467 0.47c0.057 0.058 0.134 0.091 0.215 0.091 0.080-0 0.157-0.032 0.213-0.089l0.864-0.859c0.119-0.119 0.119-0.312 0-0.431zM41.874 10.419c0.239-0.237 0.625-0.236 0.862 0.002s0.236 0.625-0.003 0.862c-0.114 0.114-0.269 0.177-0.43 0.177h-0.002c-0.337-0.002-0.608-0.276-0.606-0.613 0.001-0.161 0.065-0.315 0.18-0.429h-0.001zM41.157 12.421l-0.342 1.683-0.672-0.676 1.014-1.008zM40.811 11.906l-1.097 1.091-0.849-0.853 1.946-0.237zM42.288 23.314c0.505 0 0.914 0.409 0.914 0.914v0.305h-13.409v-0.305c0-0.505 0.409-0.914 0.914-0.914h11.581zM38.021 22.095v0.61h-3.048v-0.61h3.048zM34.974 21.486v-2.316c0-0.739 0.684-1.341 1.524-1.341s1.524 0.602 1.524 1.341v2.316h-3.048zM38.631 20.517v-1.347c0-1.075-0.957-1.95-2.133-1.95-0.761-0.012-1.472 0.375-1.875 1.021-2.319-2.442-2.841-6.083-1.302-9.078l10.63 10.691c-1.641 0.835-3.523 1.070-5.319 0.665zM45.082 20.126l-12.033-12.103 0.431-0.43 4.534 4.56c0.002 0 0.003 0.004 0.006 0.005l7.494 7.538-0.433 0.43z"></path>
<path fill="#4d5ae5" d="M36.5 18.438h-0.003c-0.505-0.001-0.915 0.408-0.915 0.913s0.408 0.915 0.913 0.916h0.003c0.505 0.001 0.915-0.408 0.916-0.913s-0.408-0.915-0.913-0.916zM36.714 19.568c-0.057 0.057-0.135 0.089-0.216 0.089-0.168-0.001-0.304-0.138-0.303-0.306 0.001-0.081 0.033-0.158 0.090-0.215s0.133-0.088 0.213-0.089c0.169 0.001 0.304 0.138 0.303 0.306-0.001 0.081-0.033 0.158-0.090 0.215h0.003z"></path>
</svg>
<svg id="icon-astronaut" width="75" height="32" viewBox="0 0 75 32" x="384" y="0">
<path fill="#f4f4fd" d="M1.143 0.143h73.143c0.552 0 1 0.448 1 1v29.714c0 0.552-0.448 1-1 1h-73.143c-0.552 0-1-0.448-1-1v-29.714c0-0.552 0.448-1 1-1z"></path>
<path fill="#4d5ae5" d="M46.842 9.442c-0.036-0.11-0.131-0.19-0.246-0.207l-1.091-0.159-0.489-0.989c-0.103-0.208-0.444-0.208-0.547 0l-0.489 0.989-1.092 0.159c-0.115 0.017-0.21 0.097-0.246 0.207s-0.006 0.232 0.077 0.312l0.79 0.77-0.187 1.087c-0.019 0.114 0.027 0.23 0.121 0.298 0.095 0.069 0.219 0.077 0.321 0.023l0.977-0.514 0.977 0.514c0.044 0.023 0.093 0.035 0.142 0.035 0.063 0 0.126-0.020 0.179-0.058 0.094-0.068 0.141-0.184 0.121-0.298l-0.186-1.087 0.79-0.77c0.083-0.081 0.113-0.202 0.077-0.312zM45.435 10.201c-0.071 0.070-0.105 0.171-0.087 0.27l0.109 0.637-0.572-0.3c-0.045-0.024-0.093-0.035-0.142-0.035s-0.097 0.012-0.142 0.035l-0.572 0.3 0.109-0.637c0.017-0.099-0.016-0.2-0.087-0.27l-0.463-0.451 0.639-0.093c0.099-0.014 0.185-0.077 0.229-0.167l0.286-0.579 0.286 0.579c0.045 0.090 0.13 0.152 0.23 0.167l0.639 0.093-0.462 0.451z"></path>
<path fill="#4d5ae5" d="M43.505 18.584h-0.609v0.61h0.609v-0.61z"></path>
<path fill="#4d5ae5" d="M43.505 19.803h-0.609v0.61h0.609v-0.61z"></path>
<path fill="#4d5ae5" d="M44.114 19.194h-0.609v0.61h0.609v-0.61z"></path>
<path fill="#4d5ae5" d="M42.895 19.194h-0.61v0.61h0.61v-0.61z"></path>
<path fill="#4d5ae5" d="M41.371 21.937h-0.609v0.61h0.609v-0.61z"></path>
<path fill="#4d5ae5" d="M41.371 23.156h-0.609v0.61h0.609v-0.61z"></path>
<path fill="#4d5ae5" d="M41.981 22.546h-0.61v0.61h0.61v-0.61z"></path>
<path fill="#4d5ae5" d="M40.762 22.546h-0.61v0.61h0.61v-0.61z"></path>
<path fill="#4d5ae5" d="M37.714 20.718h-0.609v0.61h0.609v-0.61z"></path>
<path fill="#4d5ae5" d="M37.714 21.937h-0.609v0.61h0.609v-0.61z"></path>
<path fill="#4d5ae5" d="M38.324 21.327h-0.609v0.61h0.609v-0.61z"></path>
<path fill="#4d5ae5" d="M37.105 21.327h-0.61v0.61h0.61v-0.61z"></path>
<path fill="#4d5ae5" d="M31.924 10.355h-0.609v0.61h0.609v-0.61z"></path>
<path fill="#4d5ae5" d="M31.924 11.575h-0.609v0.61h0.609v-0.61z"></path>
<path fill="#4d5ae5" d="M32.533 10.965h-0.609v0.61h0.609v-0.61z"></path>
<path fill="#4d5ae5" d="M31.314 10.965h-0.61v0.61h0.61v-0.61z"></path>
<path fill="#2e2f42" d="M42.694 14.948c-0.164-0.222-0.405-0.364-0.679-0.403-0.275-0.039-0.546 0.033-0.766 0.201l-0.715 0.549-1.085 0.81-0.776-0.309c1.383-0.621 2.351-2.005 2.351-3.611 0-2.185-1.784-3.962-3.978-3.962s-3.978 1.777-3.978 3.962c0 0.792 0.237 1.528 0.64 2.148l-1.579-0.014c-0.001 0-0.002 0-0.003 0-0.005 0-0.009 0.002-0.013 0.003-0.030 0.001-0.060 0.007-0.089 0.018-0.007 0.003-0.015 0.004-0.022 0.008-0.003 0.002-0.007 0.002-0.011 0.004l-1.847 0.912c-0 0-0.001 0-0.001 0l-1.082 0.52c-0.012 0.005-0.024 0.012-0.036 0.020-0.431 0.287-0.578 0.851-0.342 1.312 0.126 0.245 0.34 0.425 0.603 0.508 0.101 0.032 0.205 0.047 0.308 0.047 0.165 0 0.329-0.041 0.479-0.121l0.793-0.422 1.294-0.668 0.775-0.005-3.11 3.095c-0 0-0.001 0-0.001 0.001l-0.765 0.762c-0.181 0.18-0.28 0.418-0.28 0.673s0.099 0.493 0.28 0.674c0.185 0.185 0.43 0.277 0.674 0.277s0.488-0.093 0.675-0.277l0.751-0.748 0.995-0.743 0.515 0.513-1.007 1.002c-0 0-0.001 0-0.001 0.001l-0.765 0.762c-0.181 0.18-0.28 0.418-0.28 0.673s0.099 0.493 0.28 0.674c0.186 0.185 0.43 0.277 0.674 0.277s0.489-0.093 0.674-0.277l1.99-1.981c0-0 0-0.001 0.001-0.001l0.577-0.571-0.002-0.002c0.004-0.004 0.009-0.005 0.013-0.009l2.952-3.233 1.983 0.282c0.014 0.002 0.029 0.003 0.043 0.003 0.037 0 0.073-0.009 0.107-0.022 0.010-0.004 0.019-0.009 0.028-0.013 0.011-0.006 0.023-0.009 0.033-0.015l1.836-1.219c0.007-0.005 0.010-0.012 0.017-0.017s0.016-0.008 0.023-0.015l0.727-0.681c0.378-0.354 0.43-0.934 0.121-1.35zM29.789 17.012c-0.099 0.053-0.211 0.064-0.319 0.030-0.107-0.033-0.193-0.106-0.244-0.204-0.092-0.179-0.039-0.397 0.122-0.515l0.751-0.361 0.181 0.528 0.076 0.222-0.567 0.301zM31.787 15.967l-0.885 0.457-0.251-0.733 1.158-0.572-0.023 0.848zM40.415 12.184c0 0.525-0.125 1.020-0.342 1.463l-2.389-1.085c-0.025-0.328-0.195-0.614-0.45-0.793l0.837-2.777c1.359 0.432 2.345 1.7 2.345 3.193zM33.679 12.184c0-1.848 1.511-3.352 3.368-3.352 0.145 0 0.286 0.012 0.426 0.030l-0.818 2.716c-0.011-0-0.021-0.003-0.033-0.003-0.59 0-1.070 0.479-1.070 1.067s0.48 1.067 1.070 1.067c0.397 0 0.74-0.219 0.925-0.54l2.207 1.003c-0.614 0.826-1.597 1.366-2.707 1.366-1.857 0-3.368-1.504-3.368-3.352zM37.083 12.641c0 0.252-0.207 0.457-0.461 0.457s-0.461-0.205-0.461-0.457 0.207-0.457 0.461-0.457c0.254 0 0.461 0.205 0.461 0.457zM29.98 21.226c-0.135 0.134-0.354 0.134-0.488 0-0.065-0.065-0.101-0.151-0.101-0.242s0.036-0.177 0.101-0.241l0.55-0.548 0.486 0.484-0.548 0.546zM31.816 23.36c-0.135 0.134-0.354 0.134-0.488 0-0.065-0.065-0.101-0.151-0.101-0.242s0.035-0.176 0.101-0.241l0.55-0.548 0.487 0.484-0.548 0.546zM33.806 21.378c-0 0-0.001 0-0.001 0.001l-1.009 1.006-0.487-0.484 1.008-1.003c0 0 0 0 0-0s0.001-0 0.001-0.001c0.023-0.023 0.037-0.050 0.051-0.077 0.004-0.008 0.012-0.015 0.015-0.023 0.009-0.023 0.011-0.049 0.015-0.073 0.002-0.014 0.008-0.027 0.008-0.041 0-0.020-0.007-0.040-0.012-0.060-0.004-0.018-0.004-0.037-0.011-0.055-0.012-0.029-0.031-0.054-0.052-0.079-0.006-0.007-0.008-0.015-0.014-0.022 0 0 0 0-0 0s-0-0.001-0.001-0.001l-0.918-0.914c-0.010-0.010-0.022-0.014-0.033-0.022-0.016-0.012-0.032-0.024-0.050-0.033s-0.035-0.014-0.053-0.019c-0.019-0.006-0.038-0.010-0.059-0.011-0.019-0.001-0.036 0.001-0.055 0.003-0.020 0.002-0.039 0.005-0.059 0.012s-0.036 0.016-0.054 0.026c-0.011 0.006-0.024 0.009-0.035 0.016l-1.013 0.756-0.515-0.513 1.371-1.363 2.492 2.451-0.53 0.525zM37.702 17.368c-0.009-0.001-0.017 0.002-0.026 0.002-0.022-0.001-0.044 0-0.066 0.004-0.017 0.003-0.034 0.006-0.050 0.012-0.019 0.007-0.037 0.016-0.055 0.027s-0.033 0.021-0.047 0.035c-0.007 0.006-0.016 0.009-0.023 0.017l-2.685 2.94-2.473-2.432 1.619-1.61c0.119-0.119 0.12-0.312 0.001-0.431-0.060-0.060-0.139-0.090-0.218-0.089v-0l-1.268 0.008 0.016-0.919 1.774 0.015c0.723 0.739 1.731 1.2 2.847 1.2 0.25 0 0.494-0.026 0.731-0.070 0.023 0.018 0.045 0.037 0.074 0.049l1.377 0.549 0.087 0.433 0.102 0.506-1.716-0.244zM40.012 17.47l-0.179-0.89 0.827-0.617 0.217 0.287 0.325 0.431-1.189 0.789zM42.157 15.852l-0.479 0.449-0.532-0.706 0.475-0.364c0.089-0.068 0.2-0.096 0.31-0.082 0.111 0.016 0.208 0.073 0.275 0.162 0.124 0.167 0.103 0.399-0.049 0.541z"></path>
<path fill="#2e2f42" d="M36.344 17.454l-1.225-1.219c-0.119-0.119-0.311-0.119-0.43 0l-1.224 1.219c-0.057 0.058-0.089 0.135-0.089 0.216s0.032 0.159 0.089 0.216l1.224 1.219c0.059 0.059 0.137 0.089 0.215 0.089s0.156-0.030 0.215-0.089l1.225-1.219c0.057-0.057 0.090-0.135 0.090-0.216s-0.032-0.159-0.090-0.216zM34.905 18.459l-0.792-0.789 0.792-0.789 0.793 0.789-0.793 0.789z"></path>
<path fill="#2e2f42" d="M38.38 9.755l-0.147 0.592c0.041 0.010 0.993 0.258 0.993 1.228h0.609c0-1.153-0.952-1.695-1.455-1.82z"></path>
<path fill="#2e2f42" d="M39.835 12.184h-0.609v0.61h0.609v-0.61z"></path>
</svg>
<svg id="icon-clock" width="75" height="32" viewBox="0 0 75 32" x="0" y="0">
<path fill="#f4f4fd" d="M1.143 0.143h73.143c0.552 0 1 0.448 1 1v29.714c0 0.552-0.448 1-1 1h-73.143c-0.552 0-1-0.448-1-1v-29.714c0-0.552 0.448-1 1-1z"></path>
<path fill="#2e2f42" d="M46.455 15.601c-0.001-4.83-3.917-8.745-8.747-8.744s-8.745 3.917-8.744 8.747c0.001 3.805 2.461 7.172 6.085 8.329 0.035 0.011 0.071 0.016 0.107 0.016 0.069-0 0.137-0.019 0.196-0.054 0.077-0.046 0.135-0.118 0.162-0.204l2.209-7c0.604-0.003 1.091-0.495 1.087-1.099s-0.495-1.091-1.099-1.088c-0.162 0.001-0.323 0.038-0.469 0.109l-2.918-2.918c-0.145-0.14-0.375-0.136-0.515 0.009-0.137 0.141-0.137 0.365 0 0.506l2.916 2.919c-0.224 0.457-0.096 1.008 0.306 1.319l-2.104 6.67c-4.159-1.532-6.288-6.145-4.756-10.304s6.145-6.288 10.304-4.756c4.159 1.532 6.288 6.145 4.756 10.304-0.749 2.032-2.286 3.675-4.264 4.556l-0.227-1.071c-0.041-0.197-0.235-0.323-0.432-0.281-0.062 0.013-0.12 0.042-0.167 0.085l-2.193 1.957c-0.151 0.134-0.164 0.364-0.030 0.514 0.044 0.049 0.099 0.085 0.162 0.105l2.799 0.893c0.191 0.061 0.397-0.044 0.458-0.235 0.019-0.061 0.023-0.125 0.010-0.187l-0.223-1.051c3.237-1.365 5.338-4.538 5.331-8.051zM37.71 15.236c0.201 0 0.365 0.163 0.365 0.364s-0.163 0.364-0.365 0.364-0.364-0.163-0.364-0.364c0-0.201 0.163-0.364 0.364-0.364zM38.91 23.73l1.248-1.113 0.345 1.623-1.593-0.51z"></path>
<path fill="#4d5ae5" d="M37.345 8.677v0.729c0 0.201 0.163 0.364 0.364 0.364s0.365-0.163 0.365-0.364v-0.729c0-0.201-0.163-0.364-0.365-0.364s-0.364 0.163-0.364 0.364z"></path>
<path fill="#4d5ae5" d="M30.786 15.236c-0.201 0-0.364 0.163-0.364 0.364s0.163 0.364 0.364 0.364h0.729c0.201 0 0.364-0.163 0.364-0.364s-0.163-0.364-0.364-0.364h-0.729z"></path>
<path fill="#4d5ae5" d="M44.633 15.965c0.201 0 0.365-0.163 0.365-0.364s-0.163-0.364-0.365-0.364h-0.729c-0.201 0-0.364 0.163-0.364 0.364s0.163 0.364 0.364 0.364h0.729z"></path>
</svg>
<symbol id="icon-person" viewBox="0 0 27 32">
<path d="M12 16c2.21 0 4-1.79 4-4s-1.79-4-4-4c-2.21 0-4 1.79-4 4s1.79 4 4 4zM12 18c-2.67 0-8 1.34-8 4v1c0 0.55 0.45 1 1 1h14c0.55 0 1-0.45 1-1v-1c0-2.66-5.33-4-8-4z"></path>
<path fill="none" stroke="#2e2f42" style="stroke: var(--color1, #2e2f42)" stroke-linejoin="miter" stroke-linecap="round" stroke-miterlimit="4" stroke-width="1.6667" d="M24.833 4.833v22.333"></path>
</symbol>
<symbol id="icon-mail" viewBox="0 0 24 32">
<path d="M20 8h-16c-1.1 0-1.99 0.9-1.99 2l-0.010 12c0 1.1 0.9 2 2 2h16c1.1 0 2-0.9 2-2v-12c0-1.1-0.9-2-2-2zM19.6 12.25l-7.070 4.42c-0.32 0.2-0.74 0.2-1.060 0l-7.070-4.42c-0.25-0.16-0.4-0.43-0.4-0.72 0-0.67 0.73-1.070 1.3-0.72l6.7 4.19 6.7-4.19c0.57-0.35 1.3 0.050 1.3 0.72 0 0.29-0.15 0.56-0.4 0.72z"></path>
</symbol>
<symbol id="icon-phone" viewBox="0 0 24 32">
<path d="M19.635 18.487l-2.451-0.28c-0.589-0.067-1.167 0.135-1.582 0.55l-1.775 1.775c-2.731-1.389-4.969-3.618-6.359-6.359l1.785-1.785c0.415-0.415 0.618-0.994 0.55-1.582l-0.28-2.432c-0.116-0.975-0.936-1.708-1.92-1.708h-1.669c-1.090 0-1.997 0.907-1.93 1.997 0.511 8.24 7.102 14.821 15.332 15.332 1.090 0.068 1.997-0.839 1.997-1.93v-1.669c0.010-0.975-0.724-1.795-1.698-1.911z"></path>
</symbol>
<symbol id="icon-subscribe" viewBox="0 0 132 32">
<path fill="#4d5ae5" style="fill: var(--color2, #4d5ae5)" d="M3.2 0h125.6c1.767 0 3.2 1.433 3.2 3.2v25.6c0 1.767-1.433 3.2-3.2 3.2h-125.6c-1.767 0-3.2-1.433-3.2-3.2v-25.6c0-1.767 1.433-3.2 3.2-3.2z"></path>
<path fill="#fff" style="fill: var(--color3, #fff)" d="M25.064 17.656c0-0.188-0.029-0.354-0.088-0.5-0.054-0.146-0.152-0.279-0.294-0.4s-0.342-0.238-0.6-0.35c-0.254-0.117-0.579-0.235-0.975-0.356-0.433-0.133-0.833-0.281-1.2-0.444-0.362-0.167-0.679-0.358-0.95-0.575-0.271-0.221-0.481-0.473-0.631-0.756-0.15-0.288-0.225-0.619-0.225-0.994 0-0.371 0.077-0.708 0.231-1.013 0.158-0.304 0.381-0.567 0.669-0.787 0.292-0.225 0.635-0.398 1.031-0.519 0.396-0.125 0.833-0.187 1.312-0.187 0.675 0 1.256 0.125 1.744 0.375 0.492 0.25 0.869 0.585 1.131 1.006 0.267 0.421 0.4 0.885 0.4 1.394h-1.556c0-0.3-0.065-0.565-0.194-0.794-0.125-0.233-0.317-0.417-0.575-0.55-0.254-0.133-0.577-0.2-0.969-0.2-0.371 0-0.679 0.056-0.925 0.169s-0.429 0.265-0.55 0.456c-0.121 0.192-0.181 0.408-0.181 0.65 0 0.171 0.040 0.327 0.119 0.469 0.079 0.138 0.2 0.267 0.362 0.388 0.162 0.117 0.367 0.227 0.612 0.331s0.535 0.204 0.869 0.3c0.504 0.15 0.944 0.317 1.319 0.5 0.375 0.179 0.688 0.383 0.938 0.613s0.437 0.49 0.562 0.781c0.125 0.288 0.188 0.615 0.188 0.981 0 0.383-0.077 0.729-0.231 1.038-0.154 0.304-0.375 0.565-0.662 0.781-0.283 0.213-0.625 0.377-1.025 0.494-0.396 0.112-0.837 0.169-1.325 0.169-0.438 0-0.869-0.058-1.294-0.175-0.421-0.117-0.804-0.294-1.15-0.531-0.346-0.242-0.621-0.542-0.825-0.9-0.204-0.362-0.306-0.785-0.306-1.269h1.569c0 0.296 0.050 0.548 0.15 0.756 0.104 0.208 0.248 0.379 0.431 0.512 0.183 0.129 0.396 0.225 0.638 0.288 0.246 0.062 0.508 0.094 0.788 0.094 0.367 0 0.673-0.052 0.919-0.156 0.25-0.104 0.438-0.25 0.562-0.438s0.188-0.404 0.188-0.65zM32.458 18.406v-5.169h1.512v6.762h-1.425l-0.088-1.594zM32.67 17l0.506-0.012c0 0.454-0.050 0.873-0.15 1.256-0.1 0.379-0.254 0.71-0.462 0.994-0.208 0.279-0.475 0.498-0.8 0.656-0.325 0.154-0.715 0.231-1.169 0.231-0.329 0-0.631-0.048-0.906-0.144s-0.512-0.244-0.712-0.444c-0.196-0.2-0.348-0.46-0.456-0.781s-0.162-0.704-0.162-1.15v-4.369h1.506v4.381c0 0.246 0.029 0.452 0.088 0.619 0.058 0.162 0.137 0.294 0.237 0.394s0.217 0.171 0.35 0.212c0.133 0.042 0.275 0.062 0.425 0.062 0.429 0 0.767-0.083 1.012-0.25 0.25-0.171 0.427-0.4 0.531-0.688 0.108-0.287 0.162-0.61 0.162-0.969zM36.032 10.4h1.506v8.156l-0.144 1.444h-1.362v-9.6zM41.951 16.556v0.131c0 0.5-0.056 0.96-0.169 1.381-0.108 0.417-0.275 0.779-0.5 1.088-0.221 0.308-0.496 0.548-0.825 0.719-0.325 0.167-0.702 0.25-1.131 0.25-0.421 0-0.788-0.079-1.1-0.237s-0.575-0.383-0.788-0.675c-0.208-0.292-0.377-0.64-0.506-1.044s-0.221-0.85-0.275-1.337v-0.419c0.054-0.492 0.146-0.937 0.275-1.337 0.129-0.404 0.298-0.752 0.506-1.044 0.212-0.296 0.473-0.523 0.781-0.681 0.312-0.158 0.677-0.238 1.094-0.238 0.433 0 0.815 0.083 1.144 0.25 0.333 0.167 0.61 0.404 0.831 0.713 0.221 0.304 0.385 0.667 0.494 1.087 0.112 0.421 0.169 0.885 0.169 1.394zM40.445 16.688v-0.131c0-0.304-0.025-0.59-0.075-0.856-0.050-0.271-0.133-0.508-0.25-0.712-0.112-0.204-0.267-0.365-0.462-0.481-0.192-0.121-0.431-0.181-0.719-0.181-0.267 0-0.496 0.046-0.688 0.138s-0.352 0.217-0.481 0.375c-0.129 0.158-0.231 0.342-0.306 0.55-0.071 0.208-0.119 0.433-0.144 0.675v1.131c0.038 0.312 0.117 0.6 0.238 0.862 0.125 0.258 0.3 0.467 0.525 0.625 0.225 0.154 0.515 0.231 0.869 0.231 0.279 0 0.515-0.056 0.706-0.169s0.344-0.269 0.456-0.469c0.117-0.204 0.2-0.442 0.25-0.713 0.054-0.271 0.081-0.562 0.081-0.875zM47.532 18.169c0-0.15-0.038-0.285-0.112-0.406-0.075-0.125-0.219-0.238-0.431-0.338-0.208-0.1-0.517-0.192-0.925-0.275-0.358-0.079-0.687-0.173-0.987-0.281-0.296-0.112-0.55-0.248-0.763-0.406s-0.377-0.346-0.494-0.562c-0.117-0.217-0.175-0.467-0.175-0.75 0-0.275 0.060-0.535 0.181-0.781s0.294-0.462 0.519-0.65c0.225-0.187 0.498-0.335 0.819-0.444 0.325-0.108 0.688-0.163 1.088-0.163 0.567 0 1.052 0.096 1.456 0.288 0.408 0.188 0.721 0.444 0.938 0.769 0.217 0.321 0.325 0.683 0.325 1.088h-1.506c0-0.179-0.046-0.346-0.137-0.5-0.088-0.158-0.221-0.285-0.4-0.381-0.179-0.1-0.404-0.15-0.675-0.15-0.258 0-0.473 0.042-0.644 0.125-0.167 0.079-0.292 0.183-0.375 0.312-0.079 0.129-0.119 0.271-0.119 0.425 0 0.112 0.021 0.215 0.063 0.306 0.046 0.088 0.121 0.169 0.225 0.244 0.104 0.071 0.246 0.138 0.425 0.2 0.183 0.062 0.412 0.123 0.687 0.181 0.517 0.108 0.96 0.248 1.331 0.419 0.375 0.167 0.662 0.383 0.862 0.65 0.2 0.262 0.3 0.596 0.3 1 0 0.3-0.065 0.575-0.194 0.825-0.125 0.246-0.308 0.46-0.55 0.644-0.242 0.179-0.531 0.319-0.869 0.419-0.333 0.1-0.708 0.15-1.125 0.15-0.613 0-1.131-0.108-1.556-0.325-0.425-0.221-0.748-0.502-0.969-0.844-0.217-0.346-0.325-0.704-0.325-1.075h1.456c0.017 0.279 0.094 0.502 0.231 0.669 0.142 0.162 0.317 0.281 0.525 0.356 0.212 0.071 0.431 0.106 0.656 0.106 0.271 0 0.498-0.035 0.681-0.106 0.183-0.075 0.323-0.175 0.419-0.3 0.096-0.129 0.144-0.275 0.144-0.438zM53.6 18.925c0.246 0 0.467-0.048 0.662-0.144 0.2-0.1 0.36-0.238 0.481-0.413 0.125-0.175 0.194-0.377 0.206-0.606h1.419c-0.008 0.438-0.137 0.835-0.387 1.194s-0.581 0.644-0.994 0.856c-0.412 0.208-0.869 0.312-1.369 0.312-0.517 0-0.967-0.087-1.35-0.262-0.383-0.179-0.702-0.425-0.956-0.738s-0.446-0.673-0.575-1.081c-0.125-0.408-0.188-0.846-0.188-1.312v-0.219c0-0.467 0.062-0.904 0.188-1.312 0.129-0.412 0.321-0.775 0.575-1.088s0.573-0.556 0.956-0.731c0.383-0.179 0.831-0.269 1.344-0.269 0.542 0 1.017 0.108 1.425 0.325 0.408 0.212 0.729 0.51 0.962 0.894 0.238 0.379 0.36 0.821 0.369 1.325h-1.419c-0.012-0.25-0.075-0.475-0.188-0.675-0.108-0.204-0.262-0.367-0.462-0.488-0.196-0.121-0.431-0.181-0.706-0.181-0.304 0-0.556 0.063-0.756 0.188-0.2 0.121-0.356 0.288-0.469 0.5-0.112 0.208-0.194 0.444-0.244 0.706-0.046 0.258-0.069 0.527-0.069 0.806v0.219c0 0.279 0.023 0.55 0.069 0.812s0.125 0.498 0.238 0.706c0.117 0.204 0.275 0.369 0.475 0.494 0.2 0.121 0.454 0.181 0.762 0.181zM59.55 14.525v5.475h-1.506v-6.762h1.437l0.069 1.287zM61.618 13.194l-0.012 1.4c-0.092-0.017-0.192-0.029-0.3-0.038-0.104-0.008-0.208-0.012-0.312-0.012-0.258 0-0.485 0.038-0.681 0.112-0.196 0.071-0.36 0.175-0.494 0.312-0.129 0.133-0.229 0.296-0.3 0.488s-0.112 0.406-0.125 0.644l-0.344 0.025c0-0.425 0.042-0.819 0.125-1.181s0.208-0.681 0.375-0.956c0.171-0.275 0.383-0.49 0.637-0.644 0.258-0.154 0.556-0.231 0.894-0.231 0.092 0 0.19 0.008 0.294 0.025 0.108 0.017 0.19 0.035 0.244 0.056zM64.686 13.238v6.762h-1.512v-6.762h1.512zM63.074 11.462c0-0.229 0.075-0.419 0.225-0.569 0.154-0.154 0.367-0.231 0.638-0.231 0.267 0 0.477 0.077 0.631 0.231 0.154 0.15 0.231 0.34 0.231 0.569 0 0.225-0.077 0.413-0.231 0.562s-0.365 0.225-0.631 0.225c-0.271 0-0.483-0.075-0.638-0.225-0.15-0.15-0.225-0.337-0.225-0.562zM66.855 10.4h1.506v8.156l-0.144 1.444h-1.363v-9.6zM72.774 16.556v0.131c0 0.5-0.056 0.96-0.169 1.381-0.108 0.417-0.275 0.779-0.5 1.088-0.221 0.308-0.496 0.548-0.825 0.719-0.325 0.167-0.702 0.25-1.131 0.25-0.421 0-0.788-0.079-1.1-0.237s-0.575-0.383-0.788-0.675c-0.208-0.292-0.377-0.64-0.506-1.044s-0.221-0.85-0.275-1.337v-0.419c0.054-0.492 0.146-0.937 0.275-1.337 0.129-0.404 0.298-0.752 0.506-1.044 0.213-0.296 0.473-0.523 0.781-0.681 0.312-0.158 0.677-0.238 1.094-0.238 0.433 0 0.815 0.083 1.144 0.25 0.333 0.167 0.61 0.404 0.831 0.713 0.221 0.304 0.385 0.667 0.494 1.087 0.113 0.421 0.169 0.885 0.169 1.394zM71.267 16.688v-0.131c0-0.304-0.025-0.59-0.075-0.856-0.050-0.271-0.133-0.508-0.25-0.712-0.112-0.204-0.267-0.365-0.462-0.481-0.192-0.121-0.431-0.181-0.719-0.181-0.267 0-0.496 0.046-0.687 0.138s-0.352 0.217-0.481 0.375c-0.129 0.158-0.231 0.342-0.306 0.55-0.071 0.208-0.119 0.433-0.144 0.675v1.131c0.038 0.312 0.117 0.6 0.238 0.862 0.125 0.258 0.3 0.467 0.525 0.625 0.225 0.154 0.515 0.231 0.869 0.231 0.279 0 0.515-0.056 0.706-0.169s0.344-0.269 0.456-0.469c0.117-0.204 0.2-0.442 0.25-0.713 0.054-0.271 0.081-0.562 0.081-0.875zM77.542 20.125c-0.5 0-0.952-0.081-1.356-0.244-0.4-0.167-0.742-0.398-1.025-0.694-0.279-0.296-0.494-0.644-0.644-1.044s-0.225-0.831-0.225-1.294v-0.25c0-0.529 0.077-1.008 0.231-1.438s0.369-0.796 0.644-1.1c0.275-0.308 0.6-0.544 0.975-0.706s0.781-0.244 1.219-0.244c0.483 0 0.906 0.081 1.269 0.244s0.662 0.392 0.9 0.688c0.242 0.292 0.421 0.64 0.537 1.044 0.121 0.404 0.182 0.85 0.182 1.337v0.644h-5.225v-1.081h3.738v-0.119c-0.008-0.271-0.062-0.525-0.162-0.762-0.096-0.238-0.244-0.429-0.444-0.575s-0.467-0.219-0.8-0.219c-0.25 0-0.473 0.054-0.669 0.163-0.192 0.104-0.352 0.256-0.481 0.456s-0.229 0.442-0.3 0.725c-0.067 0.279-0.1 0.594-0.1 0.944v0.25c0 0.296 0.040 0.571 0.119 0.825 0.083 0.25 0.204 0.469 0.363 0.656s0.35 0.335 0.575 0.444c0.225 0.104 0.481 0.156 0.769 0.156 0.362 0 0.685-0.073 0.969-0.219s0.529-0.352 0.738-0.619l0.794 0.769c-0.146 0.213-0.336 0.417-0.569 0.613-0.233 0.192-0.519 0.348-0.856 0.469-0.333 0.121-0.721 0.181-1.162 0.181z"></path>
<path fill="#fff" style="fill: var(--color3, #fff)" d="M112.8 8l-19.2 9 6.136 1.894 9.464-7.394-7.198 8.093 0.006 0.002-0.007-0.002v4.407l3.441-3.345 4.359 1.345 3-14z"></path>
</symbol>
<svg id="icon-close" width="32" height="32" viewBox="0 0 32 32">
<path fill="#e7e9fc" style="fill: var(--color1, #e7e9fc)" d="M32 16c0 8.837-7.163 16-16 16s-16-7.163-16-16c0-8.837 7.163-16 16-16s16 7.163 16 16z"></path>
<path fill="none" stroke="#000" stroke-linejoin="miter" stroke-linecap="butt" stroke-miterlimit="4" stroke-width="1.3333" d="M31.333 16c0 8.468-6.865 15.333-15.333 15.333s-15.333-6.865-15.333-15.333c0-8.468 6.865-15.333 15.333-15.333s15.333 6.865 15.333 15.333z"></path>
<path fill="#2e2f42" style="fill: var(--color2, #2e2f42)" d="M21.333 11.741l-1.074-1.074-4.259 4.259-4.259-4.259-1.074 1.074 4.259 4.259-4.259 4.259 1.074 1.074 4.259-4.259 4.259 4.259 1.074-1.074-4.259-4.259 4.259-4.259z"></path>
</svg>
<symbol id="icon-menu" viewBox="0 0 32 32">
<path d="M4.799 8.001c0-0.424 0.169-0.831 0.469-1.131s0.707-0.469 1.131-0.469h19.2c0.424 0 0.831 0.169 1.131 0.469s0.469 0.707 0.469 1.131-0.169 0.831-0.469 1.131c-0.3 0.3-0.707 0.469-1.131 0.469h-19.2c-0.424 0-0.831-0.169-1.131-0.469s-0.469-0.707-0.469-1.131z"></path>
<path d="M4.799 16.001c0-0.424 0.169-0.831 0.469-1.131s0.707-0.469 1.131-0.469h19.2c0.424 0 0.831 0.169 1.131 0.469s0.469 0.707 0.469 1.131c0 0.424-0.169 0.831-0.469 1.131s-0.707 0.469-1.131 0.469h-19.2c-0.424 0-0.831-0.169-1.131-0.469s-0.469-0.707-0.469-1.131z"></path>
<path d="M4.799 24.001c0-0.424 0.169-0.831 0.469-1.131s0.707-0.469 1.131-0.469h19.2c0.424 0 0.831 0.169 1.131 0.469s0.469 0.707 0.469 1.131c0 0.424-0.169 0.831-0.469 1.131s-0.707 0.469-1.131 0.469h-19.2c-0.424 0-0.831-0.169-1.131-0.469s-0.469-0.707-0.469-1.131z"></path>
</symbol>
</svg>